<svg width="36" height="26" viewBox="0 0 36 26" fill="none" xmlns="http://www.w3.org/2000/svg">
<g id="Group 40">
<path id="Vector" d="M34.176 20.4858C36.2867 16.7345 35.6252 12.0659 32.5091 9.01271C30.6495 7.19027 28.1768 6.18642 25.5467 6.18642C24.8299 6.18642 24.1254 6.26359 23.4418 6.40899C22.9627 5.68175 22.4036 4.99692 21.7633 4.37025C19.3996 2.05347 16.2557 0.777893 12.9116 0.777893C9.56843 0.777893 6.42491 2.05323 4.06066 4.37025C-0.0609389 8.40847 -0.777018 14.7266 2.29109 19.536L1.19382 23.8083C1.11803 24.1035 1.20588 24.416 1.42563 24.6313C1.64513 24.8471 1.96405 24.9325 2.2655 24.8587L6.78964 23.7435C8.65345 24.7681 10.7631 25.3085 12.9146 25.3085C15.2856 25.3085 17.5546 24.6637 19.5179 23.4636C21.236 24.7724 23.3335 25.4838 25.5448 25.4838C27.3722 25.4838 29.1408 24.9957 30.685 24.0676L33.9613 24.8754C34.2622 24.9502 34.5811 24.8636 34.8006 24.6483C35.0204 24.433 35.1087 24.1204 35.0327 23.8253L34.176 20.4858ZM18.1756 22.2313C16.5867 23.1083 14.7879 23.5777 12.9147 23.5777C10.9586 23.5777 9.0436 23.0586 7.37741 22.0757C7.23887 21.995 7.08138 21.9528 6.92241 21.9528C6.85007 21.9528 6.77772 21.9614 6.70684 21.9788L3.26712 22.8271L4.09766 19.5933C4.15869 19.3558 4.1139 19.1038 3.97462 18.9002C1.12725 14.7381 1.68905 9.14202 5.30983 5.59442C7.34046 3.60438 10.0407 2.50843 12.9122 2.50843C15.7842 2.50843 18.4844 3.60438 20.5153 5.59442C20.9484 6.01929 21.3379 6.47548 21.6866 6.95586C22.0338 7.43499 22.3397 7.93798 22.5981 8.46176C23.2948 9.87283 23.6639 11.4306 23.6639 13.0442C23.6639 15.8584 22.5454 18.5036 20.5153 20.4937C20.2402 20.7626 19.9516 21.0143 19.6538 21.2504C19.1857 21.6198 18.6919 21.9462 18.1756 22.2313ZM32.3756 20.5687L32.9598 22.8437L30.746 22.2983C30.5029 22.2378 30.2458 22.2816 30.0381 22.4188C28.7093 23.2924 27.1553 23.7535 25.5452 23.7535C23.9048 23.7535 22.3398 23.2765 21.0127 22.3916C21.2698 22.1773 21.5218 21.9537 21.7635 21.7172C24.1278 19.4006 25.4298 16.3204 25.4298 13.0442C25.4298 11.2784 25.0481 9.56996 24.3296 8.00715C24.7292 7.94807 25.1352 7.91769 25.5469 7.91769C27.7048 7.91769 29.7345 8.74191 31.2606 10.2371C33.8904 12.8146 34.3905 16.7922 32.4752 19.912C32.3539 20.1085 32.318 20.3453 32.3756 20.5691L32.3756 20.5687Z" fill="#1F1F1F"/>
<path id="Vector_2" d="M12.6046 16.5622C12.2637 16.5622 11.9829 16.4433 11.77 16.2096C11.5613 15.9808 11.4547 15.6724 11.4547 15.2936V13.0902C11.4547 12.8541 11.4615 12.6681 11.4747 12.5201C11.4945 12.3015 11.5769 12.1138 11.72 11.9641C11.8421 11.8354 12.0099 11.7311 12.2323 11.6477C12.4217 11.5767 12.6807 11.5087 13.0234 11.4382C13.3451 11.3709 13.6027 11.2684 13.7863 11.1345C13.9703 10.9994 14.1118 10.8529 14.2049 10.6982C14.3003 10.5399 14.3663 10.3715 14.4012 10.1992C14.4392 10.0098 14.4587 9.83438 14.4587 9.67728C14.4587 9.11322 14.2977 8.68447 13.9655 8.36736C13.6241 8.04141 13.1909 7.88332 12.6416 7.88332C12.209 7.88332 11.8314 7.979 11.5194 8.16817C11.2272 8.34607 10.9871 8.70922 10.8054 9.24905C10.6948 9.58064 10.5585 9.80479 10.3891 9.93352C10.2214 10.0608 10.012 10.1261 9.7674 10.1261C9.47098 10.1261 9.20435 10.0128 8.97492 9.78889C8.73643 9.55691 8.6194 9.2361 8.63638 8.86143C8.65011 8.37519 8.78692 7.91736 9.04262 7.50546C9.28622 7.11466 9.59707 6.76988 9.96656 6.48014C10.3337 6.19212 10.7502 5.96772 11.2037 5.81328C11.6553 5.65961 12.1207 5.58179 12.586 5.58179C13.1783 5.58179 13.7405 5.68065 14.2568 5.87568C14.7754 6.07169 15.2316 6.34601 15.6132 6.69033C15.9985 7.03928 16.3065 7.45748 16.5294 7.93296C16.7556 8.41577 16.8701 8.9502 16.8701 9.52184C16.8701 10.6624 16.5499 11.5994 15.9175 12.3074C15.3538 12.9387 14.6267 13.3799 13.7551 13.6215V15.2946C13.7551 15.6731 13.6488 15.9815 13.4391 16.2105C13.226 16.4435 12.9455 16.5622 12.6046 16.5622Z" fill="#1F1F1F"/>
<path id="Vector_3" d="M12.7527 21.3661C12.3771 21.3661 12.0512 21.2316 11.7834 20.9636C11.5154 20.696 11.3799 20.3701 11.3799 19.994C11.3799 19.6186 11.5154 19.2924 11.7834 19.0246C12.0509 18.7573 12.3773 18.621 12.7527 18.621C13.1288 18.621 13.4547 18.7573 13.7222 19.0246C13.9895 19.2919 14.125 19.6181 14.125 19.994C14.125 20.3701 13.9895 20.6962 13.7217 20.9636C13.4547 21.2316 13.1288 21.3661 12.7527 21.3661Z" fill="#1F1F1F"/>
</g>
</svg>
